<svg width="24" height="24" viewBox="0 0 24 24" fill="none" xmlns="http://www.w3.org/2000/svg">
<rect width="24" height="24" rx="4" fill="#3C3ADD"/>
<path d="M13.35 8.95H11.65V7.25H13.35M13.35 15.75H11.65V10.65H13.35M12.5 3C11.3838 3 10.2785 3.21986 9.24719 3.64702C8.21592 4.07419 7.27889 4.70029 6.48959 5.48959C4.89553 7.08365 4 9.24566 4 11.5C4 13.7543 4.89553 15.9163 6.48959 17.5104C7.27889 18.2997 8.21592 18.9258 9.24719 19.353C10.2785 19.7801 11.3838 20 12.5 20C14.7543 20 16.9163 19.1045 18.5104 17.5104C20.1045 15.9163 21 13.7543 21 11.5C21 10.3838 20.7801 9.27846 20.353 8.24719C19.9258 7.21592 19.2997 6.27889 18.5104 5.48959C17.7211 4.70029 16.7841 4.07419 15.7528 3.64702C14.7215 3.21986 13.6162 3 12.5 3Z" fill="white"/>
</svg>
