<svg width="24" height="24" viewBox="0 0 24 24" fill="none" xmlns="http://www.w3.org/2000/svg">
<g clip-path="url(#clip0_2027_3762)">
<path d="M15.0327 12.6353C16.2268 11.7215 17.0002 10.2861 17.0002 8.6665C17.0002 5.90525 14.7614 3.6665 12.0002 3.6665C9.23891 3.6665 7.00016 5.90525 7.00016 8.6665C7.00016 10.2861 7.7735 11.7215 8.96766 12.6353C6.10016 13.8878 4.0835 16.8603 4.0835 20.3332H19.9168C19.9168 16.8603 17.9002 13.8878 15.0327 12.6353ZM8.66683 8.6665C8.66683 6.82859 10.1622 5.33317 12.0002 5.33317C13.8381 5.33317 15.3335 6.82859 15.3335 8.6665C15.3335 10.5044 13.8381 11.9998 12.0002 11.9998C10.1622 11.9998 8.66683 10.5044 8.66683 8.6665ZM12.0002 13.6665C14.9072 13.6665 17.3568 15.7944 18.0522 18.6665H5.94808C6.6435 15.7944 9.09308 13.6665 12.0002 13.6665Z" fill="black"/>
</g>
<defs>
<clipPath id="clip0_2027_3762">
<rect width="20" height="20" fill="white" transform="translate(2 2)"/>
</clipPath>
</defs>
</svg>
