<svg width="20" height="20" viewBox="0 0 20 20" fill="none" xmlns="http://www.w3.org/2000/svg">
<g clip-path="url(#clip0_2044_3561)">
<path d="M13.0327 10.6353C14.2268 9.7215 15.0002 8.28609 15.0002 6.6665C15.0002 3.90525 12.7614 1.6665 10.0002 1.6665C7.23891 1.6665 5.00016 3.90525 5.00016 6.6665C5.00016 8.28609 5.7735 9.7215 6.96766 10.6353C4.10016 11.8878 2.0835 14.8603 2.0835 18.3332H17.9168C17.9168 14.8603 15.9002 11.8878 13.0327 10.6353ZM6.66683 6.6665C6.66683 4.82859 8.16225 3.33317 10.0002 3.33317C11.8381 3.33317 13.3335 4.82859 13.3335 6.6665C13.3335 8.50442 11.8381 9.99984 10.0002 9.99984C8.16225 9.99984 6.66683 8.50442 6.66683 6.6665ZM10.0002 11.6665C12.9072 11.6665 15.3568 13.7944 16.0522 16.6665H3.94808C4.6435 13.7944 7.09308 11.6665 10.0002 11.6665Z" fill="black"/>
</g>
<defs>
<clipPath id="clip0_2044_3561">
<rect width="20" height="20" fill="white"/>
</clipPath>
</defs>
</svg>
