<svg width="20" height="20" viewBox="0 0 20 20" fill="none" xmlns="http://www.w3.org/2000/svg">
<path d="M10.625 7.5C10.625 7.15482 10.3452 6.875 10 6.875C9.65483 6.875 9.375 7.15482 9.375 7.5V9.375H7.5C7.15482 9.375 6.875 9.65483 6.875 10C6.875 10.3452 7.15482 10.625 7.5 10.625H9.375V12.5C9.375 12.8452 9.65483 13.125 10 13.125C10.3452 13.125 10.625 12.8452 10.625 12.5V10.625H12.5C12.8452 10.625 13.125 10.3452 13.125 10C13.125 9.65483 12.8452 9.375 12.5 9.375H10.625V7.5Z" fill="white"/>
<path fill-rule="evenodd" clip-rule="evenodd" d="M10.0003 1.04167C5.05278 1.04167 1.04199 5.05245 1.04199 10C1.04199 14.9476 5.05278 18.9583 10.0003 18.9583C14.9479 18.9583 18.9587 14.9476 18.9587 10C18.9587 5.05245 14.9479 1.04167 10.0003 1.04167ZM2.29199 10C2.29199 5.74281 5.74313 2.29167 10.0003 2.29167C14.2575 2.29167 17.7087 5.74281 17.7087 10C17.7087 14.2572 14.2575 17.7083 10.0003 17.7083C5.74313 17.7083 2.29199 14.2572 2.29199 10Z" fill="white"/>
</svg>
