<svg width="18" height="18" viewBox="0 0 18 18" fill="none" xmlns="http://www.w3.org/2000/svg">
<path d="M3.375 11.9137C3.2685 11.9137 3.1795 11.8777 3.108 11.8057C3.036 11.7337 3 11.6444 3 11.5379C3 11.4314 3.036 11.3424 3.108 11.2709C3.18 11.1994 3.269 11.1634 3.375 11.1629H11.8125C11.919 11.1629 12.008 11.1992 12.0795 11.2717C12.151 11.3442 12.187 11.4332 12.1875 11.5387C12.188 11.6442 12.152 11.7332 12.0795 11.8057C12.007 11.8782 11.918 11.9142 11.8125 11.9137H3.375ZM4.7745 9.37493C4.668 9.37493 4.57875 9.33893 4.50675 9.26693C4.43475 9.19493 4.399 9.10568 4.3995 8.99918C4.4 8.89268 4.43575 8.80368 4.50675 8.73218C4.57775 8.66068 4.667 8.62493 4.7745 8.62493H13.212C13.318 8.62493 13.407 8.66093 13.479 8.73293C13.551 8.80493 13.5868 8.89418 13.5863 9.00068C13.5857 9.10718 13.55 9.19618 13.479 9.26768C13.408 9.33918 13.3187 9.37493 13.2113 9.37493H4.7745ZM6.1875 6.83693C6.081 6.83693 5.992 6.80093 5.9205 6.72893C5.849 6.65693 5.813 6.56768 5.8125 6.46118C5.812 6.35468 5.848 6.26568 5.9205 6.19418C5.993 6.12268 6.082 6.08668 6.1875 6.08618H14.625C14.7315 6.08618 14.8205 6.12218 14.892 6.19418C14.964 6.26618 15 6.35543 15 6.46193C15 6.56843 14.964 6.65743 14.892 6.72893C14.82 6.80043 14.731 6.83643 14.625 6.83693H6.1875Z" fill="white"/>
</svg>
