<svg width="24" height="24" viewBox="0 0 24 24" fill="none" xmlns="http://www.w3.org/2000/svg">
<path d="M11.8428 8.21094C16.6857 8.32095 19.31 10.2612 20.708 12.6484C22.1159 15.0527 22.2549 17.8684 22.2549 19.5801V20.5371L21.7871 19.7031C20.3031 17.0568 18.6993 15.7098 17.0146 15.0156C15.3929 14.3473 13.6719 14.2726 11.8428 14.2666V18.498L11.4482 18.2188L1.85156 11.4209L1.56348 11.2168L1.85156 11.0127L11.4482 4.21582L11.8428 3.93652V8.21094ZM3.81152 11.2168L10.542 15.9834V12.9648H11.5928L12.708 12.9727C15.1808 13.0178 18.014 13.355 20.5752 15.9004C20.1085 13.8963 19.2136 12.3871 17.8926 11.3408C16.3871 10.1485 14.2982 9.53123 11.582 9.50488L10.79 9.49805L10.542 9.49512V6.4502L3.81152 11.2168Z" fill="black" stroke="black" stroke-width="0.5"/>
</svg>
