<svg width="14" height="14" viewBox="0 0 14 14" fill="none" xmlns="http://www.w3.org/2000/svg">
<g clip-path="url(#clip0_2005_4507)">
<path d="M13.112 5.41666H7.50033V7.72416H10.707C10.5662 8.46624 10.1437 9.09457 9.50991 9.51707C8.97908 9.87457 8.30199 10.0912 7.50033 10.0912C5.95116 10.0912 4.63491 9.04582 4.16366 7.63749H4.15662L4.16366 7.63207C4.04449 7.27457 3.97408 6.89541 3.97408 6.49999C3.97408 6.10457 4.04449 5.72541 4.16366 5.36791C4.63491 3.95957 5.95116 2.91416 7.50033 2.91416C8.37783 2.91416 9.15783 3.21749 9.78074 3.80249L11.487 2.09624C10.4524 1.13207 9.10908 0.541656 7.50033 0.541656C5.17116 0.541656 3.16158 1.87957 2.18116 3.82957C1.77491 4.63124 1.54199 5.53582 1.54199 6.49999C1.54199 7.46416 1.77491 8.36874 2.18116 9.17041V9.17582C3.16158 11.1204 5.17116 12.4583 7.50033 12.4583C9.10908 12.4583 10.4578 11.9275 11.4437 11.0175C12.5703 9.97749 13.2203 8.44999 13.2203 6.63541C13.2203 6.21291 13.1824 5.80666 13.112 5.41666Z" fill="#FC4C53"/>
<mask id="mask0_2005_4507" style="mask-type:luminance" maskUnits="userSpaceOnUse" x="1" y="0" width="13" height="13">
<path d="M13.112 5.41666H7.50033V7.72416H10.707C10.5662 8.46624 10.1437 9.09457 9.50991 9.51707C8.97908 9.87457 8.30199 10.0912 7.50033 10.0912C5.95116 10.0912 4.63491 9.04582 4.16366 7.63749H4.15662L4.16366 7.63207C4.04449 7.27457 3.97408 6.89541 3.97408 6.49999C3.97408 6.10457 4.04449 5.72541 4.16366 5.36791C4.63491 3.95957 5.95116 2.91416 7.50033 2.91416C8.37783 2.91416 9.15783 3.21749 9.78074 3.80249L11.487 2.09624C10.4524 1.13207 9.10908 0.541656 7.50033 0.541656C5.17116 0.541656 3.16158 1.87957 2.18116 3.82957C1.77491 4.63124 1.54199 5.53582 1.54199 6.49999C1.54199 7.46416 1.77491 8.36874 2.18116 9.17041V9.17582C3.16158 11.1204 5.17116 12.4583 7.50033 12.4583C9.10908 12.4583 10.4578 11.9275 11.4437 11.0175C12.5703 9.97749 13.2203 8.44999 13.2203 6.63541C13.2203 6.21291 13.1824 5.80666 13.112 5.41666Z" fill="white"/>
</mask>
<g mask="url(#mask0_2005_4507)">
<path d="M2.97504 13.0222C5.29498 13.0222 7.17566 10.4833 7.17566 7.35149C7.17566 4.21965 5.29498 1.68079 2.97504 1.68079C0.655098 1.68079 -1.22559 4.21965 -1.22559 7.35149C-1.22559 10.4833 0.655098 13.0222 2.97504 13.0222Z" fill="url(#paint0_radial_2005_4507)"/>
<path d="M10.2198 18.7752C14.8996 18.1906 18.3337 14.8374 17.89 11.2857C17.4464 7.73388 13.293 5.32847 8.61317 5.91303C3.93337 6.49759 0.499303 9.85075 0.94296 13.4025C1.38662 16.9543 5.54 19.3597 10.2198 18.7752Z" fill="url(#paint1_radial_2005_4507)"/>
<path d="M7.01562 4.48499L7.28158 7.51615L7.61904 9.54578L11.6068 13.2551L16.2689 4.64424L7.01562 4.48499Z" fill="url(#paint2_linear_2005_4507)"/>
</g>
</g>
<defs>
<radialGradient id="paint0_radial_2005_4507" cx="0" cy="0" r="1" gradientUnits="userSpaceOnUse" gradientTransform="translate(2.97554 7.35136) scale(4.20057 5.67014)">
<stop offset="0.368" stop-color="#FFCF09"/>
<stop offset="0.718" stop-color="#FFCF09" stop-opacity="0.7"/>
<stop offset="1" stop-color="#FFCF09" stop-opacity="0"/>
</radialGradient>
<radialGradient id="paint1_radial_2005_4507" cx="0" cy="0" r="1" gradientUnits="userSpaceOnUse" gradientTransform="translate(9.41666 12.3441) rotate(-7.12) scale(8.53909 6.48088)">
<stop offset="0.383" stop-color="#34A853"/>
<stop offset="0.706" stop-color="#34A853" stop-opacity="0.7"/>
<stop offset="1" stop-color="#34A853" stop-opacity="0"/>
</radialGradient>
<linearGradient id="paint2_linear_2005_4507" x1="13.761" y1="3.4049" x2="7.58058" y2="10.9953" gradientUnits="userSpaceOnUse">
<stop offset="0.671" stop-color="#4285F4"/>
<stop offset="0.885" stop-color="#4285F4" stop-opacity="0"/>
</linearGradient>
<clipPath id="clip0_2005_4507">
<rect width="13" height="13" fill="white" transform="translate(1)"/>
</clipPath>
</defs>
</svg>
