<svg width="28" height="28" viewBox="0 0 28 28" fill="none" xmlns="http://www.w3.org/2000/svg">
<path fill-rule="evenodd" clip-rule="evenodd" d="M8.94355 25.6666H19.0546C23.01 25.6666 25.6663 22.8921 25.6663 18.7637V9.23609C25.6663 5.10772 23.01 2.33325 19.0558 2.33325H8.94355C4.98939 2.33325 2.33301 5.10772 2.33301 9.23609V18.7637C2.33301 22.8921 4.98939 25.6666 8.94355 25.6666ZM9.91436 12.8333C8.30594 12.8333 6.99902 11.5246 6.99902 9.91665C6.99902 8.30866 8.30594 6.99998 9.91436 6.99998C11.5216 6.99998 12.8297 8.30866 12.8297 9.91665C12.8297 11.5246 11.5216 12.8333 9.91436 12.8333ZM23.1234 17.4229C23.5141 18.4247 23.3111 19.6286 22.8935 20.6207C22.3984 21.8006 21.4505 22.694 20.2562 23.0841C19.7259 23.2575 19.1698 23.3333 18.6149 23.3333H8.78256C7.80414 23.3333 6.93833 23.0985 6.22856 22.6615C5.78393 22.387 5.70533 21.7537 6.03499 21.3431C6.58638 20.6568 7.13073 19.9682 7.67978 19.2735C8.72625 17.9443 9.43133 17.559 10.215 17.8973C10.5329 18.037 10.852 18.2465 11.1805 18.468C12.0557 19.0628 13.2723 19.8803 14.8748 18.9929C15.9715 18.3787 16.6076 17.3251 17.1615 16.4077L17.1707 16.3923C17.21 16.3279 17.2489 16.2636 17.2877 16.1994L17.2877 16.1994C17.4739 15.8914 17.6575 15.5875 17.8653 15.3075C18.1257 14.9572 19.0912 13.8615 20.3418 14.6417C21.1384 15.1329 21.8083 15.7975 22.5251 16.5091C22.7985 16.7812 22.9932 17.0906 23.1234 17.4229Z" fill="#9E9E9E"/>
</svg>
