<svg width="24" height="24" viewBox="0 0 24 24" fill="none" xmlns="http://www.w3.org/2000/svg">
<path d="M9.63688 18.3475H13.4456C14.1681 18.3475 14.7738 18.0937 15.2425 17.605C15.7113 17.1362 16.0044 16.5112 16.0044 15.8081V8.17121C16.0044 7.46809 15.7113 6.84309 15.2425 6.37434C14.7738 5.90559 14.1488 5.63184 13.4456 5.63184H9.63688V7.23371H13.4456C13.9925 7.23371 14.4025 7.64371 14.4025 8.17121V15.8081C14.4025 16.3356 13.9925 16.765 13.4456 16.765H9.63688V18.3475ZM2 10.4768V13.5237C2 13.8756 2.29313 14.1681 2.64438 14.1681H6.19938V16.5706C6.19938 16.7856 6.29688 16.9612 6.4925 17.0587C6.57063 17.0781 6.66813 17.0781 6.7075 17.0781C6.84438 17.0781 6.96125 17.0387 7.05938 16.9412L11.6494 12.3512C11.825 12.1756 11.8056 11.8237 11.6494 11.6287L7.05938 7.05809C6.90313 6.90184 6.7075 6.88246 6.49312 6.94059C6.2975 7.03809 6.2 7.19434 6.2 7.40934V9.83121H2.645C2.29312 9.83121 2.00063 10.1243 2.00063 10.4756L2 10.4768Z" fill="white"/>
</svg>
