<svg width="24" height="24" viewBox="0 0 24 24" fill="none" xmlns="http://www.w3.org/2000/svg">
<path d="M16.125 17.8333C15.932 18.7843 15.0912 19.5 14.0833 19.5H6.58333C5.43274 19.5 4.5 18.5673 4.5 17.4167V11.5833C4.5 10.5754 5.21573 9.7347 6.16667 9.54167V8.66667C6.16667 6.36548 8.03215 4.5 10.3333 4.5C12.6345 4.5 14.5 6.36548 14.5 8.66667V9.54167C15.4509 9.7347 16.1667 10.5754 16.1667 11.5833V12.8333H17.4167C18.5673 12.8333 19.5 13.7661 19.5 14.9167V15.75C19.5 16.9006 18.5673 17.8333 17.4167 17.8333H16.125ZM15.2622 17.8333H11.5833C10.4327 17.8333 9.5 16.9006 9.5 15.75V14.9167C9.5 13.7661 10.4327 12.8333 11.5833 12.8333H15.3333V11.5833C15.3333 10.9254 14.825 10.3862 14.1797 10.337C14.1488 10.3443 14.1165 10.3482 14.0833 10.3482C14.045 10.3482 14.0079 10.343 13.9726 10.3333H6.58333C5.89298 10.3333 5.33333 10.893 5.33333 11.5833V17.4167C5.33333 18.107 5.89298 18.6667 6.58333 18.6667H14.0833C14.6276 18.6667 15.0906 18.3188 15.2622 17.8333ZM7 9.5H13.6667V8.66667C13.6667 6.82572 12.1743 5.33333 10.3333 5.33333C8.49238 5.33333 7 6.82572 7 8.66667V9.5ZM18.6667 15.75V14.9167C18.6667 14.2263 18.107 13.6667 17.4167 13.6667H11.5833C10.893 13.6667 10.3333 14.2263 10.3333 14.9167V15.75C10.3333 16.4404 10.893 17 11.5833 17H17.4167C18.107 17 18.6667 16.4404 18.6667 15.75ZM11.5833 14.5H12.4167C12.6468 14.5 12.8333 14.6865 12.8333 14.9167V15.75C12.8333 15.9801 12.6468 16.1667 12.4167 16.1667H11.5833C11.3532 16.1667 11.1667 15.9801 11.1667 15.75V14.9167C11.1667 14.6865 11.3532 14.5 11.5833 14.5ZM14.0833 14.5H14.9167C15.1468 14.5 15.3333 14.6865 15.3333 14.9167V15.75C15.3333 15.9801 15.1468 16.1667 14.9167 16.1667H14.0833C13.8532 16.1667 13.6667 15.9801 13.6667 15.75V14.9167C13.6667 14.6865 13.8532 14.5 14.0833 14.5ZM16.5833 14.5H17.4167C17.6468 14.5 17.8333 14.6865 17.8333 14.9167V15.75C17.8333 15.9801 17.6468 16.1667 17.4167 16.1667H16.5833C16.3532 16.1667 16.1667 15.9801 16.1667 15.75V14.9167C16.1667 14.6865 16.3532 14.5 16.5833 14.5Z" fill="black"/>
</svg>
