<svg width="24" height="24" viewBox="0 0 24 24" fill="none" xmlns="http://www.w3.org/2000/svg">
<path d="M13.8313 12.8125L12.6107 3.875H12.5195C10.3885 3.87862 8.34564 4.72572 6.83742 6.23112C5.3292 7.73653 4.4783 9.77781 4.4707 11.9087V12L13.8313 12.8125Z" fill="#ED6C47"/>
<path d="M12.7016 3.875H12.6104V12L16.6797 13.625L20.7497 12V11.9088C20.7421 9.77792 19.8913 7.73673 18.3832 6.23135C16.8751 4.72596 14.8324 3.87879 12.7016 3.875Z" fill="#FF8F6B"/>
<path d="M20.7501 12V12.0894C20.7422 14.2206 19.891 16.2621 18.3827 17.7677C16.8743 19.2734 14.8313 20.1209 12.7001 20.125H12.5207C10.3896 20.1206 8.34677 19.273 6.83848 17.7674C5.33018 16.2618 4.47895 14.2205 4.4707 12.0894V12H20.7501Z" fill="#D35230"/>
<path opacity="0.1" d="M13.0176 7.86813V16.5375C13.0165 16.685 12.9719 16.8289 12.8894 16.9512C12.8069 17.0735 12.6902 17.1687 12.5538 17.225C12.4648 17.2625 12.3692 17.2818 12.2726 17.2819H6.39196C6.27787 17.151 6.16923 17.0155 6.06633 16.8756C5.02964 15.4956 4.46962 13.816 4.47071 12.09V11.9113C4.46874 10.3543 4.92451 8.83119 5.78133 7.53125C5.87019 7.39162 5.96528 7.25607 6.06633 7.125H12.2726C12.4694 7.1263 12.6579 7.20496 12.7973 7.34399C12.9367 7.48301 13.0158 7.67127 13.0176 7.86813Z" fill="white"/>
<path opacity="0.2" d="M12.6107 8.275V16.9444C12.6107 17.0406 12.5913 17.1358 12.5538 17.2244C12.4974 17.3606 12.4022 17.4772 12.2799 17.5595C12.1576 17.6419 12.0138 17.6864 11.8663 17.6875H6.76258C6.63383 17.5567 6.51029 17.4213 6.39196 17.2812C6.27787 17.1504 6.16923 17.0148 6.06633 16.875C5.02964 15.495 4.46962 13.8154 4.47071 12.0894V11.9106C4.46887 10.3539 4.92463 8.83101 5.78133 7.53125H11.8657C12.0627 7.53256 12.2512 7.6113 12.3906 7.75046C12.53 7.88962 12.6091 8.07804 12.6107 8.275Z" fill="white"/>
<path opacity="0.2" d="M12.6107 8.275V16.1319C12.6089 16.3287 12.5298 16.517 12.3904 16.656C12.251 16.795 12.0626 16.8737 11.8657 16.875H6.06633C5.02964 15.495 4.46962 13.8154 4.47071 12.0894V11.9106C4.46887 10.3539 4.92463 8.83101 5.78133 7.53125H11.8657C12.0627 7.53256 12.2512 7.6113 12.3906 7.75046C12.53 7.88962 12.6091 8.07804 12.6107 8.275Z" fill="white"/>
<path opacity="0.2" d="M12.2038 8.275V16.1319C12.202 16.3287 12.1229 16.517 11.9835 16.656C11.8441 16.795 11.6557 16.8737 11.4588 16.875H6.06633C5.02964 15.495 4.46962 13.8154 4.47071 12.0894V11.9106C4.46887 10.3539 4.92463 8.83101 5.78133 7.53125H11.4588C11.6558 7.53256 11.8443 7.6113 11.9837 7.75046C12.1231 7.88962 12.2022 8.07804 12.2038 8.275Z" fill="white"/>
<path d="M3.99625 7.53125H11.4575C11.6551 7.53109 11.8448 7.6094 11.9847 7.74898C12.1246 7.88856 12.2034 8.07798 12.2037 8.27563V15.7244C12.2034 15.922 12.1246 16.1114 11.9847 16.251C11.8448 16.3906 11.6551 16.4689 11.4575 16.4688H3.99625C3.89836 16.4689 3.8014 16.4498 3.71091 16.4125C3.62042 16.3751 3.53817 16.3203 3.46887 16.2512C3.39956 16.1821 3.34456 16.1 3.30701 16.0096C3.26945 15.9192 3.25008 15.8223 3.25 15.7244V8.27563C3.25008 8.17774 3.26945 8.08083 3.30701 7.99043C3.34456 7.90003 3.39956 7.81792 3.46887 7.74879C3.53817 7.67966 3.62042 7.62487 3.71091 7.58754C3.8014 7.55021 3.89836 7.53109 3.99625 7.53125Z" fill="url(#paint0_linear_2018_3486)"/>
<path d="M7.80789 9.51733C8.2936 9.48466 8.77512 9.62553 9.16664 9.91483C9.32762 10.0581 9.45384 10.2362 9.53571 10.4356C9.61758 10.635 9.65295 10.8504 9.63914 11.0655C9.6446 11.3684 9.56375 11.6667 9.40602 11.9255C9.24643 12.1801 9.01656 12.383 8.74414 12.5098C8.43289 12.6542 8.09279 12.7256 7.74977 12.7186H6.80414V14.4686H5.83789V9.51733H7.80789ZM6.80352 11.9623H7.63539C7.89915 11.9813 8.16076 11.9033 8.37102 11.743C8.45699 11.6609 8.52394 11.5611 8.56713 11.4504C8.61033 11.3397 8.62872 11.2209 8.62102 11.1023C8.62102 10.5569 8.30331 10.284 7.66789 10.2836H6.80352V11.9623Z" fill="white"/>
<defs>
<linearGradient id="paint0_linear_2018_3486" x1="4.80875" y1="6.94625" x2="10.645" y2="17.0538" gradientUnits="userSpaceOnUse">
<stop stop-color="#CA4C28"/>
<stop offset="0.5" stop-color="#C5401E"/>
<stop offset="1" stop-color="#B62F14"/>
</linearGradient>
</defs>
</svg>
