<svg width="14" height="14" viewBox="0 0 14 14" fill="none" xmlns="http://www.w3.org/2000/svg">
<g clip-path="url(#clip0_578_22285)">
<path d="M9.00813 9.625L6.5625 7.17937V3.0625H7.4375V6.81625L9.625 9.00813L9.00813 9.625Z" fill="black"/>
<path d="M7 0.875C6.18404 0.875116 5.3764 1.03897 4.62491 1.35685C3.87342 1.67473 3.19336 2.14017 2.625 2.72563V0.875H1.75V4.375H5.25V3.5H3.0975C3.91826 2.58794 5.03255 1.99217 6.24685 1.81615C7.46115 1.64014 8.69875 1.89499 9.7447 2.53647C10.7906 3.17794 11.5789 4.1655 11.9725 5.32764C12.3661 6.48978 12.3403 7.75308 11.8994 8.89813C11.4586 10.0432 10.6306 10.9977 9.55926 11.5958C8.48794 12.1939 7.24095 12.3979 6.03487 12.1724C4.82879 11.9468 3.73981 11.3059 2.95706 10.3611C2.17431 9.41619 1.74723 8.22699 1.75 7H0.875C0.875 8.21141 1.23423 9.39562 1.90725 10.4029C2.58027 11.4101 3.53687 12.1952 4.65606 12.6588C5.77526 13.1223 7.00679 13.2436 8.19493 13.0073C9.38306 12.771 10.4744 12.1876 11.331 11.331C12.1876 10.4744 12.771 9.38306 13.0073 8.19493C13.2436 7.00679 13.1223 5.77526 12.6588 4.65606C12.1952 3.53687 11.4101 2.58027 10.4029 1.90725C9.39562 1.23423 8.21141 0.875 7 0.875Z" fill="black"/>
</g>
<defs>
<clipPath id="clip0_578_22285">
<rect width="14" height="14" fill="white"/>
</clipPath>
</defs>
</svg>
