<svg width="24" height="24" viewBox="0 0 24 24" fill="none" xmlns="http://www.w3.org/2000/svg">
<path d="M17.7533 6.24742C19.3419 7.83608 19.3419 10.4118 17.7533 12.0005L16.7192 13.0346C16.496 13.2579 16.496 13.6196 16.7192 13.8428L17.0617 14.1853C17.2848 14.4084 17.6466 14.4084 17.8697 14.1853L18.9039 13.1511C21.1279 10.927 21.1279 7.32094 18.9039 5.09681C16.6799 2.87268 13.074 2.87268 10.8499 5.09681L9.81579 6.13101C9.59265 6.35416 9.59265 6.71598 9.81579 6.93915L10.1583 7.28161C10.3814 7.50478 10.7432 7.50478 10.9664 7.28162L12.0005 6.24742C13.5891 4.65876 16.1647 4.65876 17.7533 6.24742Z" fill="black"/>
<path d="M6.24729 17.7527C7.83588 19.3414 10.4115 19.3414 12.0001 17.7527L13.0342 16.7185C13.2574 16.4953 13.6192 16.4953 13.8424 16.7185L14.1848 17.061C14.4079 17.2842 14.4079 17.646 14.1848 17.8691L13.1506 18.9033C10.9266 21.1275 7.32075 21.1275 5.09673 18.9033C2.8727 16.6792 2.8727 13.0732 5.09673 10.849L6.13088 9.81482C6.35403 9.59168 6.71583 9.59168 6.93898 9.81482L7.28144 10.1573C7.50459 10.3805 7.50459 10.7423 7.28144 10.9655L6.24729 11.9997C4.6587 13.5883 4.6587 16.164 6.24729 17.7527Z" fill="black"/>
<path d="M14.7565 9.00275C14.5055 8.75169 14.0985 8.75169 13.8474 9.00275L9.00371 13.8467C8.75267 14.0977 8.75267 14.5047 9.00371 14.7558L9.24518 14.9972C9.49618 15.2483 9.90325 15.2483 10.1542 14.9972L14.998 10.1534C15.249 9.90231 15.249 9.49524 14.998 9.24417L14.7565 9.00275Z" fill="black"/>
</svg>
