<svg width="21" height="21" viewBox="0 0 21 21" fill="none" xmlns="http://www.w3.org/2000/svg">
<g clip-path="url(#clip0_85_19710)">
<mask id="mask0_85_19710" style="mask-type:luminance" maskUnits="userSpaceOnUse" x="0" y="0" width="21" height="21">
<path d="M10.5 20.5C16.0228 20.5 20.5 16.0228 20.5 10.5C20.5 4.97715 16.0228 0.5 10.5 0.5C4.97715 0.5 0.5 4.97715 0.5 10.5C0.5 16.0228 4.97715 20.5 10.5 20.5Z" fill="white"/>
</mask>
<g mask="url(#mask0_85_19710)">
<path d="M20.5 7.14062V13.8594L10.5 15.1094L0.5 13.8594V7.14062L10.5 5.89062L20.5 7.14062Z" fill="#0052B4"/>
<path d="M20.5 0.5V7.14062H0.5V0.5H20.5Z" fill="#EEEEEE"/>
<path d="M20.5 13.8594V20.5H0.5V13.8594H20.5Z" fill="#D80027"/>
</g>
</g>
<defs>
<clipPath id="clip0_85_19710">
<rect width="20" height="20" fill="white" transform="translate(0.5 0.5)"/>
</clipPath>
</defs>
</svg>
