<svg width="137" height="127" viewBox="0 0 137 127" fill="none" xmlns="http://www.w3.org/2000/svg">
<path d="M5.07658 37.0847C1.23658 39.6447 -1.02343 45.0547 3.22657 51.5247C7.47657 57.9947 68.1466 101.685 70.3766 102.895C72.5966 104.105 74.8266 104.315 80.4866 100.065C86.1466 95.8147 133.467 62.6347 134.687 61.6347C136.627 60.0447 137.117 56.1747 134.687 54.3547C134.687 54.3547 77.3666 94.3947 75.4866 96.0147C73.6066 97.6347 70.6866 95.0047 71.2366 91.5647C71.7866 88.1247 72.1966 87.7247 79.4766 82.4647C86.7566 77.2047 128.037 48.0047 129.917 46.7047C132.037 45.2447 132.087 42.6547 128.617 40.3747C123.787 37.1947 71.5866 2.54474 69.8466 1.33474C68.0966 0.124737 65.6766 -0.985263 62.0366 1.44474C58.3866 3.88474 12.1466 32.3947 5.07658 37.0847Z" fill="#3C3ADD"/>
<path d="M70.3765 107.165C68.9165 106.365 42.2965 87.2846 22.9565 72.4346V103.415C22.9365 126.025 91.1865 138.105 113.797 110.315V80.7146C99.9065 90.5146 83.6665 101.975 80.4865 104.355C74.8265 108.575 72.6065 108.375 70.3765 107.165Z" fill="#3C3ADD"/>
</svg>
