<svg width="22" height="22" viewBox="0 0 22 22" fill="none" xmlns="http://www.w3.org/2000/svg">
<g clip-path="url(#clip0_536_17004)">
<path d="M8.25 4.125H11V5.5H8.25V4.125ZM12.375 4.125H15.125V5.5H12.375V4.125ZM19.25 4.125V9.625H15.125V8.25H17.875V5.5H16.5V4.125H19.25ZM6.875 8.25H9.625V9.625H6.875V8.25ZM11 8.25H13.75V9.625H11V8.25ZM4.125 5.5V8.25H5.5V9.625H2.75V4.125H6.875V5.5H4.125ZM8.25 12.375H11V13.75H8.25V12.375ZM12.375 12.375H15.125V13.75H12.375V12.375ZM19.25 12.375V17.875H15.125V16.5H17.875V13.75H16.5V12.375H19.25ZM6.875 16.5H9.625V17.875H6.875V16.5ZM11 16.5H13.75V17.875H11V16.5ZM4.125 13.75V16.5H5.5V17.875H2.75V12.375H6.875V13.75H4.125ZM20.625 1.375H1.375V20.625H20.625V1.375ZM22 0V22H0V0H22Z" fill="white"/>
</g>
<defs>
<clipPath id="clip0_536_17004">
<rect width="22" height="22" fill="white"/>
</clipPath>
</defs>
</svg>
