<svg width="24" height="24" viewBox="0 0 24 24" fill="none" xmlns="http://www.w3.org/2000/svg">
<g clip-path="url(#clip0_2021_3609)">
<path d="M12.0002 2.8335C9.56901 2.8335 7.23743 3.79927 5.51835 5.51835C3.79927 7.23743 2.8335 9.56901 2.8335 12.0002C2.8335 14.4313 3.79927 16.7629 5.51835 18.482C7.23743 20.2011 9.56901 21.1668 12.0002 21.1668C12.2212 21.1668 12.4331 21.079 12.5894 20.9228C12.7457 20.7665 12.8335 20.5545 12.8335 20.3335C12.8335 20.1125 12.7457 19.9005 12.5894 19.7442C12.4331 19.588 12.2212 19.5002 12.0002 19.5002C10.5168 19.5002 9.06675 19.0603 7.83339 18.2362C6.60002 17.4121 5.63872 16.2407 5.07107 14.8703C4.50341 13.4998 4.35488 11.9918 4.64427 10.537C4.93366 9.08213 5.64797 7.74576 6.69686 6.69686C7.74576 5.64797 9.08213 4.93366 10.537 4.64427C11.9918 4.35488 13.4998 4.50341 14.8703 5.07107C16.2407 5.63872 17.4121 6.60002 18.2362 7.83339C19.0603 9.06675 19.5002 10.5168 19.5002 12.0002V14.381C19.5002 14.7914 19.3371 15.185 19.0469 15.4752C18.7567 15.7655 18.3631 15.9285 17.9527 15.9285C17.5422 15.9285 17.1486 15.7655 16.8584 15.4752C16.5682 15.185 16.4052 14.7914 16.4052 14.381V8.4285C16.4052 8.20748 16.3174 7.99552 16.1611 7.83924C16.0048 7.68296 15.7928 7.59516 15.5718 7.59516C15.3508 7.59516 15.1389 7.68296 14.9826 7.83924C14.8263 7.99552 14.7385 8.20748 14.7385 8.4285V8.57766C13.9651 7.94643 12.9985 7.59963 12.0002 7.59516C11.2858 7.5901 10.581 7.75884 9.94642 8.08683C9.31183 8.41481 8.76653 8.89221 8.35751 9.47786C7.9485 10.0635 7.68806 10.7398 7.59862 11.4486C7.50919 12.1573 7.59346 12.8771 7.84416 13.546C8.09486 14.2149 8.50448 14.8128 9.03769 15.2882C9.57091 15.7635 10.2117 16.1021 10.9049 16.2746C11.5981 16.4472 12.3229 16.4485 13.0167 16.2786C13.7105 16.1087 14.3526 15.7726 14.8877 15.2993C15.107 16.0384 15.5853 16.6737 16.235 17.0887C16.8846 17.5038 17.6621 17.6709 18.4249 17.5593C19.1877 17.4477 19.8848 17.065 20.3884 16.4813C20.892 15.8976 21.1683 15.1519 21.1668 14.381V12.0002C21.164 9.56989 20.1973 7.23998 18.4788 5.52152C16.7603 3.80305 14.4304 2.83636 12.0002 2.8335ZM12.0002 14.7385C11.4586 14.7385 10.9291 14.5779 10.4788 14.277C10.0285 13.9761 9.67753 13.5484 9.47027 13.0481C9.26301 12.5477 9.20879 11.9971 9.31445 11.4659C9.4201 10.9348 9.68091 10.4468 10.0639 10.0639C10.4468 9.6809 10.9348 9.4201 11.4659 9.31445C11.9971 9.20879 12.5477 9.26301 13.0481 9.47027C13.5484 9.67753 13.9761 10.0285 14.277 10.4788C14.5779 10.9291 14.7385 11.4586 14.7385 12.0002C14.7376 12.7261 14.4488 13.4221 13.9355 13.9355C13.4221 14.4488 12.7261 14.7376 12.0002 14.7385Z" fill="black"/>
</g>
<defs>
<clipPath id="clip0_2021_3609">
<rect width="20" height="20" fill="white" transform="translate(2 2)"/>
</clipPath>
</defs>
</svg>
