<svg width="21" height="21" viewBox="0 0 21 21" fill="none" xmlns="http://www.w3.org/2000/svg">
<path d="M10.5 1.125C6.53125 1.125 3.15625 3.59375 1.78125 7.0625H19.2188C17.8438 3.59375 14.4687 1.125 10.5 1.125Z" fill="#42ADE2"/>
<path d="M10.5 19.875C14.4687 19.875 17.8438 17.4062 19.2188 13.9375H1.78125C3.15625 17.4062 6.53125 19.875 10.5 19.875Z" fill="#83BF4F"/>
<path d="M19.875 10.5C19.875 9.53125 19.7188 8.5625 19.4375 7.6875H1.5625C1.28125 8.5625 1.125 9.53125 1.125 10.5C1.125 11.4688 1.28125 12.4375 1.5625 13.3125H19.4375C19.7188 12.4375 19.875 11.4688 19.875 10.5Z" fill="white"/>
<path d="M19.2188 7.0625C19.25 7.15625 19.3125 7.28125 19.3437 7.375C19.375 7.46875 19.4062 7.59375 19.4375 7.6875" fill="#C94747"/>
<path d="M19.3438 7.375C19.3125 7.28125 19.25 7.15625 19.2188 7.0625H1.78125C1.75 7.15625 1.6875 7.28125 1.65625 7.375C1.625 7.46875 1.59375 7.59375 1.5625 7.6875H19.4375C19.4062 7.59375 19.375 7.46875 19.3438 7.375ZM1.65625 13.625C1.6875 13.7188 1.75 13.8438 1.78125 13.9375H19.2188C19.25 13.8438 19.3125 13.7188 19.3438 13.625C19.375 13.5312 19.4062 13.4062 19.4375 13.3125H1.5625C1.59375 13.4062 1.625 13.5312 1.65625 13.625Z" fill="#C94747"/>
<path d="M6.875 5.90625C6.125 5.90625 5.53125 5.3125 5.53125 4.5625C5.53125 3.8125 6.125 3.21875 6.875 3.21875C7.0625 3.21875 7.21875 3.25 7.375 3.3125C7.125 3.125 6.78125 3 6.4375 3C5.5625 3 4.875 3.6875 4.875 4.5625C4.875 5.4375 5.5625 6.125 6.4375 6.125C6.78125 6.125 7.125 6 7.375 5.8125C7.21875 5.875 7.0625 5.90625 6.875 5.90625ZM8.21875 5.25L8.34375 5.59375H8.6875L8.40625 5.78125L8.5 6.125L8.21875 5.90625L7.9375 6.125L8.0625 5.78125L7.78125 5.59375H8.125L8.21875 5.25ZM9.5625 5.25L9.65625 5.59375H10.0312L9.75 5.78125L9.84375 6.125L9.5625 5.90625L9.28125 6.125L9.375 5.78125L9.09375 5.59375H9.4375L9.5625 5.25ZM10.9062 5.25L11 5.59375H11.3438L11.0625 5.78125L11.1875 6.125L10.9062 5.90625L10.5938 6.125L10.7188 5.78125L10.4375 5.59375H10.7813L10.9062 5.25ZM12.2188 5.25L12.3438 5.59375H12.6875L12.4062 5.78125L12.5 6.125L12.2188 5.90625L11.9375 6.125L12.0313 5.78125L11.75 5.59375H12.125L12.2188 5.25ZM13.5625 5.25L13.6562 5.59375H14.0312L13.7188 5.78125L13.8438 6.125L13.5625 5.90625L13.2812 6.125L13.375 5.78125L13.0938 5.59375H13.4375L13.5625 5.25ZM9.5625 4.125L9.65625 4.46875H10.0312L9.75 4.65625L9.84375 5L9.5625 4.78125L9.28125 5L9.375 4.65625L9.09375 4.46875H9.4375L9.5625 4.125ZM10.9062 4.125L11 4.46875H11.3438L11.0625 4.65625L11.1875 5L10.9062 4.78125L10.5938 5L10.7188 4.65625L10.4375 4.46875H10.7813L10.9062 4.125ZM12.2188 4.125L12.3438 4.46875H12.6875L12.4062 4.65625L12.5 5L12.2188 4.78125L11.9375 5L12.0313 4.65625L11.75 4.46875H12.125L12.2188 4.125ZM13.5625 4.125L13.6562 4.46875H14.0312L13.7188 4.65625L13.8438 5L13.5625 4.78125L13.2812 5L13.375 4.65625L13.0938 4.46875H13.4375L13.5625 4.125ZM10.9062 3L11 3.34375H11.3438L11.0625 3.53125L11.1875 3.875L10.9062 3.65625L10.5938 3.875L10.7188 3.53125L10.4375 3.34375H10.7813L10.9062 3ZM12.2188 3L12.3438 3.34375H12.6875L12.4062 3.53125L12.5 3.875L12.2188 3.65625L11.9375 3.875L12.0313 3.53125L11.75 3.34375H12.125L12.2188 3ZM13.5625 3L13.6562 3.34375H14.0312L13.7188 3.53125L13.8438 3.875L13.5625 3.65625L13.2812 3.875L13.375 3.53125L13.0938 3.34375H13.4375L13.5625 3Z" fill="#DDDDDD"/>
</svg>
