<svg width="24" height="24" viewBox="0 0 24 24" fill="none" xmlns="http://www.w3.org/2000/svg">
<path d="M13.585 3.4518V5.04242C15.71 5.0543 18.035 5.02055 20.1606 5.0543C20.2356 5.04126 20.3126 5.04589 20.3854 5.06781C20.4583 5.08973 20.5251 5.12835 20.5804 5.18059C20.6357 5.23283 20.6781 5.29725 20.7042 5.36875C20.7303 5.44024 20.7393 5.51682 20.7306 5.59242C20.7644 9.50867 20.7225 13.6487 20.7506 17.5655C20.7381 17.8155 20.7562 18.2643 20.7175 18.5137C20.6681 18.8318 20.5262 18.893 20.2069 18.9362C20.0281 18.9605 19.7294 18.9574 19.5537 18.9655C17.8087 18.9568 16.065 18.9587 14.32 18.9593H13.5856V20.5512L3.25 18.958C3.25 14.3193 3.25 9.6818 3.25 5.04555L13.585 3.4518Z" fill="#283C82"/>
<path d="M13.585 5.63867H20.1475V18.3624H13.585V16.7718H18.7537V15.9768H13.585V14.983H18.7537V14.1874H13.585V13.1937H18.7537V12.398H13.585V11.4043H18.7537V10.6087H13.585V9.61492H18.7537V8.8193H13.585V7.82555H18.7537V7.02992H13.585V5.63867Z" fill="white"/>
<path d="M7.35812 9.15199C7.73312 9.13012 8.11375 9.11449 8.49125 9.09449C8.75562 10.4364 9.02625 11.7764 9.3125 13.1126C9.53687 11.7326 9.78563 10.357 10.0263 8.97949C10.4238 8.96574 10.8212 8.94387 11.2169 8.91699C10.7675 10.8432 10.3738 12.7857 9.88313 14.7007C9.55125 14.8739 9.05437 14.6926 8.66062 14.7207C8.39625 13.4045 8.08813 12.0957 7.85125 10.7745C7.61875 12.0626 7.31625 13.3332 7.05 14.6095C6.66833 14.5895 6.28521 14.5664 5.90063 14.5401C5.57063 12.7901 5.18312 11.0532 4.875 9.29949C5.215 9.28387 5.55688 9.26949 5.89688 9.25762C6.10188 10.5239 6.33438 11.7845 6.51313 13.0526C6.79313 11.7526 7.08 10.452 7.35812 9.15199Z" fill="white"/>
</svg>
