<svg width="18" height="18" viewBox="0 0 18 18" fill="none" xmlns="http://www.w3.org/2000/svg">
<g clip-path="url(#clip0_2005_4503)">
<path d="M15.3593 2.17578H3.6406C2.83168 2.17578 2.17578 2.83165 2.17578 3.64062V15.3593C2.17578 16.1683 2.83168 16.8242 3.64062 16.8242H15.3594C16.1683 16.8242 16.8242 16.1683 16.8242 15.3593V3.64059C16.8242 2.83165 16.1683 2.17575 15.3594 2.17575L15.3593 2.17578Z" fill="#FC3F1D"/>
<path d="M10.3116 12.6238V14.1994H8.69842V11.5425L5.6543 4.92236H7.33758L9.70916 10.1015C10.1664 11.0912 10.3116 11.4351 10.3116 12.6238ZM13.3447 4.92236L11.3657 9.40751H9.72562L11.7045 4.92236H13.3447Z" fill="white"/>
</g>
<defs>
<clipPath id="clip0_2005_4503">
<rect width="15" height="15" fill="white" transform="translate(2 2)"/>
</clipPath>
</defs>
</svg>
